<?xml version="1.0" encoding="UTF-8"?>
<svg id="_图层_1" data-name="图层 1" xmlns="http://www.w3.org/2000/svg" viewBox="0 0 111.548 86.984">
  <defs>
    <style>
      .cls-1 {
        fill: #416a47;
        font-family: STXinwei, STXinwei;
        font-size: 24.067px;
      }

      .cls-2 {
        fill: #bbdac3;
      }

      .cls-3 {
        fill: #3d90a2;
      }

      .cls-4 {
        fill: #b6d7b5;
      }

      .cls-5 {
        fill: #53ae86;
      }

      .cls-6 {
        stroke-width: 2px;
      }

      .cls-6, .cls-7 {
        fill: none;
        stroke: #bbdac3;
        stroke-miterlimit: 10;
      }

      .cls-8 {
        letter-spacing: -.009em;
      }

      .cls-9 {
        letter-spacing: -.01em;
      }

      .cls-7 {
        stroke-width: 3px;
      }

      .cls-10 {
        fill: #3a8eae;
      }
    </style>
  </defs>
  <text class="cls-1" transform="translate(0 57.381) scale(1 1.012)"><tspan class="cls-9" x="0" y="0">A</tspan><tspan class="cls-8" x="15.788" y="0">lgi</tspan><tspan class="cls-9" x="39.517" y="0">c</tspan><tspan class="cls-8" x="49.48" y="0">id</tspan><tspan x="69.047" y="0">e</tspan></text>
  <text class="cls-1" transform="translate(80.093 57.381) scale(1 1.012)"><tspan class="cls-9" x="0" y="0">D</tspan><tspan x="17.304" y="0">B</tspan></text>
  <path class="cls-3" d="M29.089,20.671c.319,.556,.72,1.158,1.226,1.768,1.403,1.689,2.989,2.685,4.132,3.258-1.011-.562-2.646-1.279-4.741-1.401-.745-.044-1.42-.004-2.008,.073,.464-1.233,.927-2.465,1.391-3.698"/>
  <path class="cls-3" d="M69.539,31.054c-.635-.079-1.358-.118-2.15-.08-2.193,.11-3.941,.781-5.085,1.352,1.056-.472,2.611-1.349,3.965-2.952,.481-.57,.854-1.134,1.146-1.65,.708,1.11,1.416,2.22,2.124,3.33"/>
  <path class="cls-7" d="M78.249,25.241c0,3.041-2.466,5.507-5.507,5.507s-5.506-2.466-5.506-5.507,2.465-5.507,5.506-5.507,5.507,2.466,5.507,5.507Z"/>
  <path class="cls-7" d="M28.265,19.734c0,3.041-2.466,5.507-5.507,5.507s-5.506-2.466-5.506-5.507,2.465-5.507,5.506-5.507,5.507,2.466,5.507,5.507Z"/>
  <path class="cls-7" d="M55.377,81.648c0,2.119-1.717,3.836-3.836,3.836s-3.836-1.717-3.836-3.836,1.717-3.836,3.836-3.836,3.836,1.717,3.836,3.836Z"/>
  <circle class="cls-7" cx="59.76" cy="13" r="3.566" transform="translate(24.88 63.236) rotate(-67.5)"/>
  <path class="cls-6" d="M66.515,3.106c0,1.163-.943,2.106-2.106,2.106s-2.106-.943-2.106-2.106,.943-2.106,2.106-2.106,2.106,.943,2.106,2.106Z"/>
  <path class="cls-6" d="M88.617,14.227c0,1.163-.943,2.106-2.106,2.106s-2.106-.943-2.106-2.106,.943-2.106,2.106-2.106,2.106,.943,2.106,2.106Z"/>
  <path class="cls-6" d="M92.828,23.135c0,1.163-.943,2.106-2.106,2.106s-2.106-.943-2.106-2.106,.943-2.106,2.106-2.106,2.106,.943,2.106,2.106Z"/>
  <path class="cls-2" d="M80.234,67.257c1.56,1.339,2.077,6.69,2.077,6.69,0,0-5.367,.298-6.927-1.042-1.56-1.339-1.738-3.689-.399-5.249,1.339-1.56,3.689-1.738,5.249-.399"/>
  <circle class="cls-6" cx="69.866" cy="76.422" r="2.106" transform="translate(-20.563 126.861) rotate(-76.718)"/>
  <circle class="cls-6" cx="58.299" cy="68.908" r="2.106" transform="translate(-22.16 109.816) rotate(-76.718)"/>
  <path class="cls-10" d="M43.03,68.485c0,.929-.753,1.682-1.682,1.682s-1.682-.753-1.682-1.682,.753-1.682,1.682-1.682,1.682,.753,1.682,1.682"/>
  <path class="cls-10" d="M34.764,71.759c0,1.809-1.466,3.274-3.274,3.274s-3.274-1.466-3.274-3.274,1.466-3.274,3.274-3.274,3.274,1.466,3.274,3.274"/>
  <circle class="cls-7" cx="31.49" cy="71.759" r="3.274" transform="translate(-25.064 17.513) rotate(-22.5)"/>
  <path class="cls-10" d="M76.854,9.72c0,1.449-1.175,2.624-2.624,2.624s-2.624-1.175-2.624-2.624,1.175-2.624,2.624-2.624,2.624,1.175,2.624,2.624"/>
  <path class="cls-5" d="M53.796,16.967c-.857,1.877-1.961,4.72-2.598,8.316-.89,5.021-.27,8.127-.866,8.229-.733,.125-3.139-4.308-2.252-8.835,.886-4.525,4.652-7.046,5.717-7.709"/>
  <path class="cls-3" d="M44.778,11.987c.582,.053,.901,1.346,1.039,1.905,.913,3.692-.726,8.125-1.819,8.056-.898-.056-1.635-3.164-1.3-5.717,.264-2.009,1.278-4.317,2.079-4.244"/>
  <path class="cls-4" d="M39.752,8.103c0,.766-.155,1.495-.436,2.158-.281,.663-.686,1.261-1.188,1.762-.419,.419-.904,.771-1.438,1.039-.747,.374-1.59,.585-2.481,.585-3.061,0-5.544-2.482-5.544-5.544s2.482-5.544,5.544-5.544,5.544,2.482,5.544,5.544"/>
  <polyline class="cls-4" points="37.334 15.957 37.334 16.88 34.447 13.069 36.929 12.484"/>
  <path class="cls-5" d="M34.574,26.438c.245-.348,1.177-.08,1.581,.037,2.662,.767,4.865,3.414,4.424,4.079-.363,.546-2.592-.119-4.082-1.259-1.172-.898-2.261-2.377-1.923-2.856"/>
  <path class="cls-5" d="M24.643,31.622c.09-.416,1.054-.531,1.471-.581,2.751-.329,5.809,1.253,5.662,2.037-.121,.644-2.434,.899-4.25,.427-1.429-.371-3.007-1.311-2.883-1.884"/>
  <path class="cls-5" d="M56.804,21.751c.857,1.877,1.961,4.72,2.598,8.316,.89,5.021,.27,8.127,.866,8.229,.733,.125,3.139-4.308,2.252-8.835-.886-4.525-4.652-7.046-5.717-7.709"/>
  <path class="cls-5" d="M88.045,35.728c-1.103-.969-2.587-2.48-3.722-4.563-1.586-2.908-1.426-4.971-2.022-4.899-.732,.088-2.442,3.374-.929,5.977,1.511,2.601,5.541,3.314,6.674,3.485"/>
</svg>