<?xml version="1.0" encoding="UTF-8"?>
<svg id="_图层_1" data-name="图层 1" xmlns="http://www.w3.org/2000/svg" viewBox="0 0 62.779 29.7">
  <defs>
    <style>
      .cls-1 {
        fill: #bbdac3;
      }

      .cls-2 {
        fill: #3d90a2;
      }

      .cls-3 {
        fill: #53ae86;
      }

      .cls-4 {
        stroke-width: 2px;
      }

      .cls-4, .cls-5 {
        fill: none;
        stroke: #bbdac3;
        stroke-miterlimit: 10;
      }

      .cls-5 {
        stroke-width: 3px;
      }

      .cls-6 {
        fill: #3a8eae;
      }
    </style>
  </defs>
  <path class="cls-2" d="M11.432,7.216c.268,.466,.604,.971,1.029,1.483,1.177,1.417,2.508,2.253,3.467,2.733-.848-.472-2.22-1.073-3.977-1.175-.625-.037-1.192-.003-1.685,.061,.389-1.034,.778-2.068,1.167-3.102"/>
  <path class="cls-2" d="M52.428,14.086c-.635-.079-1.358-.118-2.15-.08-2.193,.11-3.941,.781-5.085,1.352,1.056-.472,2.611-1.349,3.965-2.952,.481-.57,.854-1.134,1.146-1.65,.708,1.11,1.416,2.22,2.124,3.33"/>
  <path class="cls-5" d="M61.279,8.73c0,3.041-2.466,5.507-5.507,5.507s-5.506-2.466-5.506-5.507,2.465-5.507,5.506-5.507,5.507,2.466,5.507,5.507Z"/>
  <path class="cls-5" d="M10.74,6.43c0,2.552-2.069,4.62-4.62,4.62S1.5,8.981,1.5,6.43,3.568,1.81,6.12,1.81s4.62,2.069,4.62,4.62Z"/>
  <path class="cls-5" d="M31.075,24.364c0,2.119-1.717,3.836-3.836,3.836s-3.836-1.717-3.836-3.836,1.717-3.836,3.836-3.836,3.836,1.717,3.836,3.836Z"/>
  <path class="cls-1" d="M53.06,16.636c1.56,1.339,2.077,6.69,2.077,6.69,0,0-5.367,.298-6.927-1.042-1.56-1.339-1.738-3.689-.399-5.249,1.339-1.56,3.689-1.738,5.249-.399"/>
  <circle class="cls-4" cx="42.649" cy="26.094" r="2.106" transform="translate(7.454 61.607) rotate(-76.718)"/>
  <circle class="cls-4" cx="37.61" cy="19.969" r="2.106" transform="translate(9.534 51.985) rotate(-76.718)"/>
  <path class="cls-6" d="M22.34,19.546c0,.929-.753,1.682-1.682,1.682s-1.682-.753-1.682-1.682,.753-1.682,1.682-1.682,1.682,.753,1.682,1.682"/>
  <path class="cls-6" d="M14.074,22.82c0,1.809-1.466,3.274-3.274,3.274s-3.274-1.466-3.274-3.274,1.466-3.274,3.274-3.274,3.274,1.466,3.274,3.274"/>
  <circle class="cls-5" cx="10.8" cy="22.82" r="3.274" transform="translate(-7.911 5.87) rotate(-22.5)"/>
  <path class="cls-3" d="M36.686,0c-.857,1.877-1.961,4.72-2.598,8.316-.89,5.021-.27,8.127-.866,8.229-.733,.125-3.139-4.308-2.252-8.835,.886-4.525,4.652-7.046,5.717-7.709"/>
  <path class="cls-2" d="M27.667,2.484c.582,.053,.901,1.346,1.039,1.905,.913,3.692-.726,8.125-1.819,8.056-.898-.056-1.635-3.164-1.3-5.717,.264-2.009,1.278-4.317,2.079-4.244"/>
  <path class="cls-3" d="M17.463,9.471c.245-.348,1.177-.08,1.581,.037,2.662,.767,4.865,3.414,4.424,4.079-.363,.546-2.592-.119-4.082-1.259-1.172-.898-2.261-2.377-1.923-2.856"/>
  <path class="cls-3" d="M7.533,14.654c.09-.416,1.054-.531,1.471-.581,2.751-.329,5.809,1.253,5.662,2.037-.121,.644-2.434,.899-4.25,.427-1.429-.371-3.007-1.311-2.883-1.884"/>
  <path class="cls-3" d="M38.844,2.482c.857,1.877,1.961,4.72,2.598,8.316,.89,5.021,.27,8.127,.866,8.229,.733,.125,3.139-4.308,2.252-8.835-.886-4.525-4.652-7.046-5.717-7.709"/>
</svg>